<svg xmlns="http://www.w3.org/2000/svg" width="70" height="69.97" viewBox="0 0 70 69.97"><defs><style>.cls-1 { fill: #1e65af; fill-rule: evenodd; }</style></defs><path id="icon-intro.svg" class="cls-1" d="M833.18 2192.4a7.022 7.022 0 0 1-8.93 0l-15.759-16.09 3.272-3.3-6.029-6.1a24.168 24.168 0 0 1-16.36 6.37 24.545 24.545 0 1 1 18.431-8.53l6.058 6.13 3.4-3.44 15.916 16.09a6.31 6.31 0 0 1 .001 8.87zm-57.55-27.02a21.354 21.354 0 0 0 27.232.23v-1.33a11.3 11.3 0 0 0-11.159-11.27h-4.915a11.3 11.3 0 0 0-11.158 11.27v1.1zm35.276-16.74a21.532 21.532 0 1 0-38.134 13.86 14.174 14.174 0 0 1 14.016-12.49h4.912a14.18 14.18 0 0 1 14.045 12.76 21.8 21.8 0 0 0 5.161-14.13zm20.045 36.99l-13.83-13.99-4.615 4.66 13.83 13.98a3.408 3.408 0 0 0 4.615 0 3.186 3.186 0 0 0 0-4.65zm-41.634-39.39a8.415 8.415 0 1 1 8.33-8.41 8.556 8.556 0 0 1-8.33 8.41zm0-13.67a5.415 5.415 0 1 0 5.358 5.41 5.455 5.455 0 0 0-5.358-5.41z" transform="translate(-765 -2124)"/></svg>