<svg xmlns="http://www.w3.org/2000/svg" width="12" height="16" viewBox="0 0 12 16"><defs><style>.cls-1 { fill: #d3d6d9; fill-rule: evenodd; }</style></defs><path id="icon-user.svg" class="cls-1" d="M658 330.825c1.754 0 3.176-1.752 3.176-3.912s-.467-3.913-3.176-3.913-3.177 1.752-3.177 3.913 1.423 3.912 3.177 3.912zm-6 5.974zm12 .1zm-.007-.261c-.059-3.764-.543-4.837-4.253-5.516a2.579 2.579 0 0 1-3.479 0c-3.669.672-4.183 1.728-4.251 5.394a.791.791 0 0 1-.009.28v.4s.883 1.806 6 1.806l6-1.806v-.296a2.451 2.451 0 0 1-.009-.259z" transform="translate(-652 -323)"/></svg>