<svg xmlns="http://www.w3.org/2000/svg" width="56" height="56" viewBox="0 0 56 56"><defs><style>.cls-1 { fill: #38c182; fill-rule: evenodd; opacity: 0.8; }</style></defs><path id="icon-learning.svg" class="cls-1" d="M333.25 2019.75h-7.875v-7.88h1.75v6.13h6.125v1.75zm.875 21h-1.75v-21.51l-6.487-6.49h-30.263v28h-1.75v-29.75h32.737l7.513 7.51v22.24zm0 26.25h-40.25v-15.75h1.75v14h36.75v-10.5h1.75v12.25zm2.625-17.5h-42v-1.75h42v1.75zm0-5.25h-42v-1.75h42v1.75zm5.25 5.25h-6.125v-7h6.125v7zm-4.375-1.75h2.625v-3.5h-2.625v3.5zm-42.875 1.75h-1.75a.82.82 0 0 1-.345-.07l-6.125-2.63a.869.869 0 0 1 0-1.6l6.125-2.63a.82.82 0 0 1 .345-.07h1.75a.873.873 0 0 1 .875.87v5.25a.875.875 0 0 1-.875.88zm-1.571-1.75h.7v-3.5h-.7l-4.079 1.75zm12.946.87h-1.75v-5.25h1.75v5.25zm28 4.38h-14v-1.75h12.25v-7.88h1.75v9.63zm-17.5 5.25a3.107 3.107 0 0 1-2.369-1.13 1.342 1.342 0 0 0-2.262 0 3.048 3.048 0 0 1-4.738 0 1.342 1.342 0 0 0-2.263 0 3.046 3.046 0 0 1-4.736 0 1.433 1.433 0 0 0-1.132-.62v-1.75a3.112 3.112 0 0 1 2.368 1.13 1.343 1.343 0 0 0 2.264 0 3.047 3.047 0 0 1 4.737 0 1.342 1.342 0 0 0 2.262 0 3.048 3.048 0 0 1 4.738 0 1.427 1.427 0 0 0 1.131.62v1.75zm-15.75-38.5h-1.75v-1.75h1.75v1.75zm3.5 0h-1.75v-1.75h1.75v1.75zm3.5 0h-1.75v-1.75h1.75v1.75zm21 5.25h-29.75v-1.75h29.75v1.75zm0 3.5h-29.75v-1.75h29.75v1.75zm0 3.5h-29.75v-1.75h29.75v1.75zm0 3.5h-29.75v-1.75h29.75v1.75zm-15.75 3.5h-14v-1.75h14v1.75zm3.5 22.75h-17.5v-1.75h17.5v1.75z" transform="translate(-286 -2011)"/></svg>