<svg xmlns="http://www.w3.org/2000/svg" width="56" height="49" viewBox="0 0 56 49"><defs><style>.cls-1 { fill: #38c182; fill-rule: evenodd; opacity: 0.8; }</style></defs><path id="icon-complete.svg" class="cls-1" d="M301.625 2265h-16.625v-1.75h15.75v-26.25h-15.75v-1.75h16.625a.873.873 0 0 1 .875.87v28a.875.875 0 0 1-.875.88zm6.125-27.13 25.375 27.13h-22.75a.879.879 0 0 1-.391-.09l-3.315-1.66h-2.419v-1.75h2.625a.879.879 0 0 1 .391.09l3.315 1.66h22.544a2.625 2.625 0 1 0 0-5.25.875.875 0 1 1 0-1.75h1.75a2.625 2.625 0 1 0 0-5.25.875.875 0 1 1 0-1.75h1.75a2.625 2.625 0 1 0 0-5.25h-1.75a.875.875 0 1 1 0-1.75 2.625 2.625 0 1 0 0-5.25h-14a.855.855 0 0 1-.619-.26l-.875-.87a.875.875 0 0 1-.178-.98l4.344-9.56a26.141 26.141 0 0 0 .828-4.96 2.628 2.628 0 0 0-2.625-2.62 1.749 1.749 0 0 0-1.75 1.75.861.861 0 0 1-.092.39l-3.5 7a.882.882 0 0 1-.164.23l-9.625 9.62a.857.857 0 0 1-.619.26h-4.375v-1.75h4.013l9.268-9.27 3.351-6.7a3.5 3.5 0 0 1 3.493-3.28 4.377 4.377 0 0 1 4.375 4.37 28.07 28.07 0 0 1-.9 5.48.979.979 0 0 1-.05.14l-4.123 9.07.189.19h13.638a35.446 35.446 0 0 0 6.121 11.38 4.388 4.388 0 0 1-2.851 4.1 4.33 4.33 0 0 1 1.1 2.89 4.391 4.391 0 0 1-2.851 4.11 4.37 4.37 0 0 1-3.273 7.27zm-34.125-3.5h-1.75v-1.75h1.75v1.75zm-3.5 0h-1.75v-1.75h1.75v1.75zm-5.25 2.62h-1.75v-28h1.75v28zm44.625-20.12h-9.625v-1.75h9.625v1.75zm0 7h-8.75v-1.75h8.75v1.75zm-1.75 7h-7v-1.75h7v1.75zm-6.125-14a4.375 4.375 0 1 1 0-8.75v1.75a2.625 2.625 0 1 0 0 5.25v1.75zm-1.75 7a4.375 4.375 0 1 1 0-8.75v1.75a2.625 2.625 0 1 0 0 5.25v1.75zm.875 7a4.375 4.375 0 1 1 0-8.75v1.75a2.625 2.625 0 1 0 0 5.25v1.75zm1.75 7a4.375 4.375 0 1 1 0-8.75v1.75a2.625 2.625 0 1 0 0 5.25v1.75z" transform="translate(-285 -2216)"/></svg>