<svg xmlns="http://www.w3.org/2000/svg" width="20" height="12" viewBox="0 0 20 12"><defs><style>.cls-1 { fill: #d3d6d9; fill-rule: evenodd; }</style></defs><path id="icon-eye.svg" class="cls-1" d="M938 535c-3.82 0-7.284 2.1-9.84 5.522a.8.8 0 0 0 0 .951c2.552 3.427 6.016 5.527 9.84 5.527s7.283-2.1 9.839-5.522a.8.8 0 0 0 0-.952c-2.56-3.426-6.024-5.526-9.839-5.526zm.274 10.225a4.234 4.234 0 1 1 3.922-3.949 4.222 4.222 0 0 1-3.926 3.949zm-.127-1.952a2.28 2.28 0 1 1 2.114-2.129 2.269 2.269 0 0 1-2.118 2.129z" transform="translate(-928 -535)"/></svg>