<svg xmlns="http://www.w3.org/2000/svg" width="14" height="14" viewBox="0 0 14 14"><defs><style>.cls-1 { fill: #d3d6d9; fill-rule: evenodd; }</style></defs><path id="icon-mobile.svg" class="cls-1" d="M664.684 615.078l-2.161-2.168a1.125 1.125 0 0 0-1.589.03l-1.089 1.092-.215-.12a10.233 10.233 0 0 1-4.518-4.531l-.117-.21.731-.732.359-.361a1.13 1.13 0 0 0 .029-1.593l-2.161-2.168a1.123 1.123 0 0 0-1.589.03l-.609.614.017.017a3.478 3.478 0 0 0-.5.888 3.671 3.671 0 0 0-.224.9c-.285 2.373.8 4.541 3.73 7.484 4.056 4.067 7.325 3.76 7.466 3.744a3.642 3.642 0 0 0 .9-.226 3.522 3.522 0 0 0 .882-.5l.013.012.617-.606a1.133 1.133 0 0 0 .028-1.596z" transform="translate(-651 -604)"/></svg>