<svg xmlns="http://www.w3.org/2000/svg" width="15" height="15.031" viewBox="0 0 15 15.031"><defs><style>.cls-1 { fill: #d3d6d9; fill-rule: evenodd; }</style></defs><path id="icon-message.svg" class="cls-1" d="M632.451 468.5l-.663.665-3.978-3.986.663-.665a1.872 1.872 0 0 1 2.652 0l1.326 1.329a1.884 1.884 0 0 1 0 2.657zm-9.281 7.973a.47.47 0 0 0 0 .664.465.465 0 0 0 .663 0l7.292-7.308-.663-.664zm-3.315-3.322a.469.469 0 0 0 .663.664l7.292-7.308-.663-.664zm8.617-5.98l-7.292 7.309a.939.939 0 0 0 1.327 1.328l7.293-7.308zm-5.967 10.629a1.382 1.382 0 0 1-.373-.8 1.978 1.978 0 0 1-.289.028 1.834 1.834 0 0 1-1.848-2.15 1.389 1.389 0 0 1-.8-.394l-.048-.073-1.147 4.589 4.567-1.146-.062-.054z" transform="translate(-618 -463.969)"/></svg>