<svg xmlns="http://www.w3.org/2000/svg" width="12.219" height="14.938" viewBox="0 0 12.219 14.938"><defs><style>.cls-1 { fill: #d3d6d9; fill-rule: evenodd; }</style></defs><path id="icon-password.svg" class="cls-1" d="M655.7 540.793v-2.036a2.715 2.715 0 0 1 5.43 0v2.036h-5.43zm8.823 1.018a1.018 1.018 0 0 0-1.018-1.018h-.339v-2.036a4.751 4.751 0 0 0-9.5 0v2.036h-.339a1.019 1.019 0 0 0-1.019 1.018v6.108a1.019 1.019 0 0 0 1.019 1.018h10.18a1.018 1.018 0 0 0 1.018-1.018v-6.108z" transform="translate(-652.312 -534)"/></svg>