<svg xmlns="http://www.w3.org/2000/svg" width="15" height="15" viewBox="0 0 15 15"><defs><style>.cls-1 { fill: #fff; fill-rule: evenodd; }</style></defs><path id="icon-download.svg" class="cls-1" d="M1114.96 729h-12.92a1.027 1.027 0 0 1-1.04-1.007v-4.43h2.08v3.424h10.84v-3.424h2.08v4.43a1.026 1.026 0 0 1-1.04 1.007zm-6.15-5.748a.338.338 0 0 1-.5-.028l-2.98-3.483s-.46-.414.04-.414h1.68v-5.069s-.07-.247.31-.247h2.37a.221.221 0 0 1 .27.208v5h1.55c.6 0 .15.433.15.433s-2.54 3.254-2.89 3.595z" transform="translate(-1101 -714)"/></svg>