<svg xmlns="http://www.w3.org/2000/svg" width="14" height="11" viewBox="0 0 14 11"><defs><style>.cls-1 { fill: #d3d6d9; fill-rule: evenodd; }</style></defs><path id="icon-mail.svg" class="cls-1" d="M665.308 399.484a4.575 4.575 0 0 1-.781.68c-1.3.883-2.617 1.773-3.89 2.695a4.287 4.287 0 0 1-2.321 1.078h-.016a4.287 4.287 0 0 1-2.321-1.078c-1.273-.929-2.586-1.812-3.882-2.695a4.34 4.34 0 0 1-.789-.68v6.2a1.253 1.253 0 0 0 1.25 1.25h11.5a1.253 1.253 0 0 0 1.25-1.25v-6.2zm0-2.3a1.259 1.259 0 0 0-1.25-1.25h-11.5a1.267 1.267 0 0 0-1.25 1.422 3.048 3.048 0 0 0 1.343 1.969c1.211.844 2.438 1.688 3.649 2.539a4.705 4.705 0 0 0 2 1.07h.015a4.705 4.705 0 0 0 2-1.07c1.211-.851 2.438-1.695 3.657-2.539a2.823 2.823 0 0 0 1.336-2.138z" transform="translate(-651.312 -395.938)"/></svg>