<svg xmlns="http://www.w3.org/2000/svg" width="12" height="16" viewBox="0 0 12 16"><defs><style>.cls-1 { fill: #fff; fill-rule: evenodd; }</style></defs><path id="icon-user.svg" class="cls-1" d="M1278 46.932a5.01 5.01 0 1 0-10 0v1.068h-1v-1.068a6.409 6.409 0 0 1 3.8-5.949 4.859 4.859 0 0 1-2.3-4.184 4.509 4.509 0 1 1 9 0 4.859 4.859 0 0 1-2.3 4.184 6.409 6.409 0 0 1 3.8 5.949v1.068h-1v-1.068zm-1.5-10.132a3.507 3.507 0 1 0-3.5 3.733 3.625 3.625 0 0 0 3.5-3.733z" transform="translate(-1267 -32)"/></svg>