<svg xmlns="http://www.w3.org/2000/svg" width="52" height="63.94" viewBox="0 0 52 63.94"><defs><style>.cls-1 { fill: #75d4a8; fill-rule: evenodd; }</style></defs><path id="icon-certificate.svg" class="cls-1" d="M902 1815.06h-1v-2h1a5.058 5.058 0 0 0 5-5.1 4.989 4.989 0 0 0-5-4.96v-2a6.987 6.987 0 0 1 7 6.96 7.062 7.062 0 0 1-7 7.1zm-24 0h-2v-2h2v2zm4 0h-2v-2h2v2zm-8 0h-2v-2h2v2zm14 6h-23v-2h23v2zm0 4.01h-23v-2.01h23v2.01zm0 4h-23v-2h23v2zm0 4h-23v-2h23v2zm0 4.01h-23v-2h23v2zm8 22.02h-12v-2h11v-49.23a6.7 6.7 0 0 1 2-4.82h-33a4.856 4.856 0 0 0-5 4.82v49.23h11v2h-12a1 1 0 0 1-1-1v-50.23a6.835 6.835 0 0 1 7-6.82h38a1 1 0 1 1 0 2 4.856 4.856 0 0 0-5 4.82v50.23a1 1 0 0 1-1 1zm-15 5.82a1 1 0 0 1-.707-.29l-3.293-3.3-3.293 3.3a1 1 0 0 1-1.707-.71v-10.83h2v8.41l2.293-2.29a1 1 0 0 1 1.414 0l2.293 2.29v-8.41h2v10.83a.994.994 0 0 1-.617.92 1.031 1.031 0 0 1-.383.08zm-4-10.01a7.005 7.005 0 1 1 7-7.01 7.01 7.01 0 0 1-7 7.01zm0-12.01a5.005 5.005 0 1 0 5 5 5 5 0 0 0-5-5zm-10 6.19h-2v-2h2v2zm21 0h-2v-2h2v2zm13-1h-2v-35.03h2v35.03z" transform="translate(-857 -1801)"/></svg>