<svg xmlns="http://www.w3.org/2000/svg" width="23.969" height="24" viewBox="0 0 23.969 24"><defs><style>.cls-1 { fill: #89929c; fill-rule: evenodd; }</style></defs><path id="icon-phone.svg" class="cls-1" d="M889.977 42.866a2.365 2.365 0 0 0-1.714-.785 2.447 2.447 0 0 0-1.735.78l-1.6 1.6-.391-.2c-.182-.092-.355-.178-.5-.269a17.4 17.4 0 0 1-4.175-3.8 10.286 10.286 0 0 1-1.37-2.157c.416-.38.8-.776 1.177-1.155l.426-.431a2.32 2.32 0 0 0 0-3.5l-1.384-1.383-.472-.482c-.305-.314-.624-.638-.954-.942a2.4 2.4 0 0 0-1.7-.744 2.488 2.488 0 0 0-1.725.744l-.01.01-1.725 1.737a3.708 3.708 0 0 0-1.1 2.356 8.876 8.876 0 0 0 .65 3.758 21.8 21.8 0 0 0 3.88 6.464 23.881 23.881 0 0 0 7.949 6.215 12.394 12.394 0 0 0 4.464 1.316l.32.011a3.826 3.826 0 0 0 2.927-1.257l.02-.025a11.483 11.483 0 0 1 .888-.917c.218-.208.441-.425.66-.653a2.526 2.526 0 0 0 .766-1.753 2.431 2.431 0 0 0-.782-1.737zm1.817 5.334c-.2.212-.4.405-.619.618a13.171 13.171 0 0 0-.979 1.014 2.449 2.449 0 0 1-1.908.805l-.233-.005a11.015 11.015 0 0 1-3.957-1.185 22.544 22.544 0 0 1-7.488-5.856 20.565 20.565 0 0 1-3.652-6.073 7.221 7.221 0 0 1-.568-3.171 2.325 2.325 0 0 1 .7-1.5l1.73-1.728a1.156 1.156 0 0 1 .771-.36 1.083 1.083 0 0 1 .74.355.125.125 0 0 1 .016.015c.309.289.6.588.913.907l.482.491 1.385 1.383a.966.966 0 0 1 0 1.57l-.437.435c-.426.436-.832.842-1.273 1.237a.123.123 0 0 0-.025.025 1.032 1.032 0 0 0-.264 1.15l.015.045a11.107 11.107 0 0 0 1.639 2.669v.005a18.633 18.633 0 0 0 4.5 4.093 6.986 6.986 0 0 0 .624.339c.183.091.355.178.5.269l.06.035a1.1 1.1 0 0 0 .5.127 1.087 1.087 0 0 0 .771-.349l1.735-1.733a1.147 1.147 0 0 1 .766-.38 1.035 1.035 0 0 1 .73.37l.01.01 2.795 2.791a1 1 0 0 1 .021 1.582zm-7.823-14.492a6.525 6.525 0 0 1 5.316 5.308.681.681 0 0 0 .675.567.784.784 0 0 0 .117-.011.684.684 0 0 0 .563-.79 7.889 7.889 0 0 0-6.432-6.423.689.689 0 0 0-.792.557.677.677 0 0 0 .553.792zm11.018 4.878a12.988 12.988 0 0 0-10.589-10.576.683.683 0 1 0-.223 1.347 11.6 11.6 0 0 1 9.466 9.452.681.681 0 0 0 .675.567 1.01 1.01 0 0 0 .116-.01.671.671 0 0 0 .555-.78z" transform="translate(-871.031 -28)"/></svg>