<svg xmlns="http://www.w3.org/2000/svg" width="56" height="53" viewBox="0 0 56 53"><defs><style>.cls-1 { fill: #60cd9b; fill-rule: evenodd; }</style></defs><path id="icon-corporate.svg" class="cls-1" d="M897 2247.2m-24.5 17.79h-1.75v-6.33c0-7.04 3.869-8.5 7.964-10.04a31.129 31.129 0 0 0 4.727-2.1l.868 1.53a33.389 33.389 0 0 1-4.981 2.22c-4.112 1.55-6.828 2.57-6.828 8.39v6.33zm38.5 0h-1.75v-6.33c0-5.82-2.716-6.84-6.828-8.39a33.389 33.389 0 0 1-4.981-2.22l.868-1.53a31.129 31.129 0 0 0 4.727 2.1c4.1 1.54 7.964 3 7.964 10.04v6.33zm-16.452-13.19l-3.673-1.85-3.673 1.85-4.453-4.48 2.462-3.72 5.664.95 5.664-.95 2.462 3.72zm-3.673-3.82l3.327 1.68 2.547-2.57-1.038-1.57-4.836.81-4.836-.81-1.039 1.57 2.547 2.57zm5.25-3.26h-1.75v-3.52h1.75v3.52zm-8.75 0h-1.75v-3.52h1.75v3.52zm4.375 13.22h-1.75v-1.76h1.75v1.76zm0-3.52h-1.75v-1.77h1.75v1.77zm-.875-11.62a12.534 12.534 0 0 1-4.766-.98l-.094-.05c-.121-.08-2.962-2.06-3.881-8.54l-.009-.13v-3.52c0-5.85 2.944-8.82 8.75-8.82s8.75 2.97 8.75 8.82l-.009 3.65c-.919 6.48-3.76 8.46-3.881 8.54l-.094.05a12.534 12.534 0 0 1-4.766.98zm-3.921-2.52a10.622 10.622 0 0 0 7.841 0c.273-.22 2.327-2.03 3.08-7.24v-3.46c0-4.88-2.159-7.06-7-7.06s-7 2.18-7 7.06v3.46c.754 5.21 2.801 7.01 3.079 7.24zm8.336-7.98l-8.75-3.52-3.149 1.58-.782-1.57 3.851-1.94 8.75 3.52 3.149-1.58.782 1.57zm-21.04 16.83h-.875a18.571 18.571 0 0 1 0-37.14 17.905 17.905 0 0 1 13.79 6.54l-1.33 1.14a16.188 16.188 0 0 0-12.46-5.92 16.811 16.811 0 0 0 0 33.62h.875v1.76zm5.25 15.86h-1.75v-5.29h1.75v5.29zm24.5 0h-1.75v-5.29h1.75v5.29zm-30.625-26.52a4.2 4.2 0 0 1-4.375-4.33h1.75a3.022 3.022 0 0 0 2.625 2.57 2.676 2.676 0 0 0 2.625-2.69c0-1.18-.936-1.72-2.592-2.54l-.838-.43c-1.673-.83-3.57-1.77-3.57-4.11a4.376 4.376 0 1 1 8.75.15h-1.75a2.524 2.524 0 0 0-2.625-2.72 2.6 2.6 0 0 0-2.625 2.6c0 1.19.937 1.69 2.592 2.51l.838.41c1.673.82 3.57 1.8 3.57 4.14a4.425 4.425 0 0 1-4.375 4.44zm.875-14.9h-1.75v-2.65h1.75v2.65zm0 16.74h-1.75v-2.64h1.75v2.64zm0 5.29h-.875a15.046 15.046 0 1 1 11.007-25.12l-1.294 1.19a13.186 13.186 0 1 0-9.713 22.17h.875v1.76z" transform="translate(-855 -2212)"/></svg>