<svg xmlns="http://www.w3.org/2000/svg" width="76" height="58" viewBox="0 0 76 58"><defs><style>.cls-1 { fill: #105caa; fill-rule: evenodd; }</style></defs><path id="icon-employee.svg" class="cls-1" d="M1123.87 1856.46l-3.96-8.19v-23.31a1.2 1.2 0 0 0-.23-.67.251.251 0 0 0-.04-.07l-.11-.15a1.175 1.175 0 0 0-.3-.24l-34.73-19.7a1.128 1.128 0 0 0-1.15 0l-34.74 19.7a1.25 1.25 0 0 0-.61 1.04 1.22 1.22 0 0 0 .57 1.07l15.75 9.95-.01.01v18.99a1.256 1.256 0 0 0 .57 1.05c6.36 4.04 12.75 6.06 19.11 6.06s12.71-2.02 18.98-6.07a1.217 1.217 0 0 0 .56-1.04v-19l14-8.84v21.22l-3.97 8.19a1.257 1.257 0 0 0 .06 1.19 1.163 1.163 0 0 0 1.01.58h8.18a1.175 1.175 0 0 0 1.01-.58 1.229 1.229 0 0 0 .05-1.19zm-22.71-2.25c-11.51 7.19-22.8 7.19-34.47 0v-16.82l16.61 10.49a1.172 1.172 0 0 0 .62.18 1.147 1.147 0 0 0 .62-.18l16.62-10.49v16.82zm-17.24-8.81l-32.37-20.44 32.37-18.36 32.38 18.36zm32.63 10.38l2.17-4.48 2.17 4.48h-4.34z" transform="translate(-1048 -1804)"/></svg>