<svg xmlns="http://www.w3.org/2000/svg" width="66" height="76" viewBox="0 0 66 76"><defs><style>.cls-1 { fill: #105caa; fill-rule: evenodd; }</style></defs><path id="icon-awareness.svg" class="cls-1" d="M322.464 1814.19v2.37h-2.357v-2.37h2.357zm35.357 24.93h-5.893v9.51a8.291 8.291 0 0 1-8.249 8.31h-5.893v13.06h-2.357v-13.06h-2.358v-2.38h10.608a5.918 5.918 0 0 0 5.892-5.93v-10.69a1.183 1.183 0 0 1 1.179-1.19h5.893v-.93l-6.963-15.2a1.151 1.151 0 0 1-.109-.5 23.691 23.691 0 0 0-23.571-23.75c-7.379 0-14.718 3.67-17.847 8.93a9.4 9.4 0 0 0 8.418 13.64h16.012l-2.7-2.73 1.667-1.67 4.714 4.75a1.183 1.183 0 0 1 0 1.67l-4.714 4.75-1.667-1.67 2.7-2.73h-16.012a11.77 11.77 0 0 1-10.484-17.15c3.579-6.02 11.748-10.16 19.913-10.16a26.056 26.056 0 0 1 25.927 25.86l6.965 15.2a1.233 1.233 0 0 1 .108.5v2.38a1.18 1.18 0 0 1-1.179 1.18zm-35.357-15.43v2.37h-2.357v-2.37h2.357zm2.357 0h2.357v2.37h-2.357v-2.37zm2.357-7.13h-2.357v-2.37h2.357v2.37zm-1.178 20.19a16.625 16.625 0 0 0 0-33.25v-2.38a19 19 0 0 1 0 38h-18.563c2.29 5.53 4.42 10.78 4.42 16.63v14.25h-2.357v-14.25c0-5.48-2.119-10.6-4.362-16.01l-.253-.62h-11.885v-2.37h10.92c-2.045-5.1-3.849-10.46-3.849-16.63h2.358c0 6.09 1.929 11.47 4.03 16.63h19.541z" transform="translate(-293 -1794)"/></svg>