<svg xmlns="http://www.w3.org/2000/svg" width="56" height="56" viewBox="0 0 56 56"><defs><style>.cls-1 { fill: #38c182; fill-rule: evenodd; opacity: 0.8; }</style></defs><path id="icon-course.svg" class="cls-1" d="M287.026 1861h-2.026v-52.5a3.5 3.5 0 0 1 3.5-3.5h49a3.5 3.5 0 0 1 3.5 3.5v36.75a3.5 3.5 0 0 1-3.5 3.5h-32.974zm1.474-54.25a1.749 1.749 0 0 0-1.75 1.75v50.56l17.224-12.06h33.526a1.755 1.755 0 0 0 1.75-1.75v-36.75a1.749 1.749 0 0 0-1.75-1.75h-49zm49 31.5h-49v-29.75h49v29.75zm-47.25-1.75h45.5v-26.25h-45.5v26.25zm17.72-6.13h-1.97v-14h1.97l13 7zm-.22-12.13v10.27l9.529-5.14zm-8.75 24.39h-10.5v-1.76h10.5v1.76zm28 0h-22.75v-1.76h22.75v1.76zm3.5 0h-1.75v-1.76h1.75v1.76zm3.5 0h-1.75v-1.76h1.75v1.76zm3.5 0h-1.75v-1.76h1.75v1.76zm-35 .87h-1.75v-3.5h1.75v3.5z" transform="translate(-285 -1805)"/></svg>